<svg width="103" height="116" viewBox="0 0 103 116" fill="none" xmlns="http://www.w3.org/2000/svg">
<path fill-rule="evenodd" clip-rule="evenodd" d="M51 6C51 2.68629 53.6863 0 57 0V0C60.3137 0 63 2.68629 63 6V36C63 40.4183 66.5817 44 71 44H83C87.4183 44 91 40.4183 91 36V6C91 2.68629 93.6863 0 97 0V0C100.314 0 103 2.68629 103 6V39C103 41.7614 100.761 44 98 44V44C95.2386 44 93 46.2386 93 49V50C93 53.3137 90.3137 56 87 56H68.5C65.4624 56 63 53.5376 63 50.5V50.5C63 47.4624 60.5376 45 57.5 45H57C53.6863 45 51 42.3137 51 39V6Z" fill="#6644EE"/>
<path fill-rule="evenodd" clip-rule="evenodd" d="M43 6C43 2.68629 40.3137 0 37 0H20C16.6863 0 14 2.68629 14 6V6C14 9.31371 16.6863 12 20 12H37C40.3137 12 43 9.31371 43 6V6ZM0 17C0 13.6863 2.68629 11 6 11H6.5C9.53757 11 12 13.4624 12 16.5V16.5C12 19.5376 14.4624 22 17.5 22H18C21.3137 22 24 24.6863 24 28V28C24 31.3137 21.3137 34 18 34H17C14.2386 34 12 36.2386 12 39V39C12 41.7614 14.2386 44 17 44H37C40.3137 44 43 46.6863 43 50V50C43 53.3137 40.3137 56 37 56H17.5C14.4624 56 12 53.5376 12 50.5V50.5C12 47.4624 9.53757 45 6.5 45H6C2.68629 45 0 42.3137 0 39V39C0 35.6863 2.68629 33 6 33H7C9.76142 33 12 30.7614 12 28V28C12 25.2386 9.76142 23 7 23H6C2.68629 23 0 20.3137 0 17V17Z" fill="#6644EE"/>
<path fill-rule="evenodd" clip-rule="evenodd" d="M50 66C50 62.6863 52.6863 60 56 60H64C67.3137 60 70 62.6863 70 66V66C70 69.3137 67.3137 72 64 72H56.5C53.4624 72 51 74.4624 51 77.5V77.5C51 80.5376 53.4624 83 56.5 83H57C60.3137 83 63 85.6863 63 89V89C63 92.3137 60.3137 95 57 95H56.5C53.4624 95 51 92.5376 51 89.5V89.5C51 86.4624 48.5376 84 45.5 84H45C41.6863 84 39 81.3137 39 78V77.5C39 74.4624 41.4624 72 44.5 72V72C47.5376 72 50 69.5376 50 66.5V66ZM70 105C73.3137 105 76 102.314 76 99V99C76 95.6863 73.3137 93 70 93H69.5C66.4624 93 64 95.4624 64 98.5V98.5C64 101.538 61.5376 104 58.5 104H50C46.6863 104 44 106.686 44 110V110C44 113.314 46.6863 116 50 116H58.5C61.5376 116 64 113.538 64 110.5V110.5C64 107.462 66.4624 105 69.5 105H70Z" fill="#6644EE"/>
<path fill-rule="evenodd" clip-rule="evenodd" d="M25 66C25 62.6863 22.3137 60 19 60H13C9.68629 60 7 62.6863 7 66V66C7 69.3137 9.68629 72 13 72H16C20.4183 72 24 75.5817 24 80V96C24 100.418 20.4183 104 16 104H13C9.68629 104 7 106.686 7 110V110C7 113.314 9.68629 116 13 116H19C22.3137 116 25 113.314 25 110V109.5C25 106.462 27.4624 104 30.5 104V104C33.5376 104 36 101.538 36 98.5V77.5C36 74.4624 33.5376 72 30.5 72V72C27.4624 72 25 69.5376 25 66.5V66ZM6 72C2.68629 72 0 74.6863 0 78V98C0 101.314 2.68629 104 6 104C9.31371 104 12 101.314 12 98V78C12 74.6863 9.31371 72 6 72Z" fill="#6644EE"/>
<path fill-rule="evenodd" clip-rule="evenodd" d="M91 66C91 62.6863 88.3137 60 85 60V60C81.6863 60 79 62.6863 79 66V99C79 102.314 81.6863 105 85 105H85.5C88.5376 105 91 107.462 91 110.5V110.5C91 113.538 93.4624 116 96.5 116H97C100.314 116 103 113.314 103 110V110C103 106.686 100.314 104 97 104V104C93.6863 104 91 101.314 91 98V66Z" fill="#6644EE"/>
</svg>
